<svg enable-background="new 0 0 383.344 383.345" height="383.345" viewBox="0 0 383.344 383.345" width="383.344" xmlns="http://www.w3.org/2000/svg"><path d="m273.217 106.899c-27.181-44.864-57.413-83.693-73.016-102.846-2.088-2.565-5.221-4.054-8.528-4.053-3.308 0-6.44 1.489-8.529 4.054-15.602 19.159-45.834 58.001-73.015 102.869-35.028 57.823-52.789 105.63-52.789 142.09 0 74.071 60.261 134.332 134.332 134.332s134.332-60.261 134.332-134.332c.001-36.484-17.758-84.298-52.787-142.114zm-63.111 226.969c-7.844 2.006-15.986 3.022-24.205 3.022-50.186 0-91.015-37.929-91.015-84.55 0-11.255 2.97-24.405 8.825-39.083.989-2.48 3.807-3.895 6.585-3.295 2.776.598 4.64 3.018 4.354 5.65-.342 3.148-.516 6.223-.516 9.136 0 50.735 40.881 93.221 95.093 98.821 2.698.279 4.803 2.297 5.018 4.812.216 2.515-1.522 4.817-4.139 5.487z"/></svg>